<svg id="Layer_1" data-name="Layer 1" xmlns="http://www.w3.org/2000/svg" viewBox="0 0 762.16 461.66"><defs><style>.cls-1{fill:#fff;}</style></defs><title>logo-full-white</title><path class="cls-1" d="M521.93,303.05h48.56c1.46-1.94.82-4,.87-5.93.35-14.15-.87-28.34.66-42.45,1.86-17.06,13.12-26.95,30.08-27h23.41v75.18h27.8c0-5.72-.11-11.33,0-16.93.25-10.48-.91-21,.69-31.44,2.13-13.79,10.35-24.33,21.37-26.12,10.5-1.7,21.18-.59,32.29-.54V302.9h27.69c0-13.06,0-25.84,0-38.63a49.57,49.57,0,0,1,1.53-13.34c4.45-16.37,13.34-23.23,30.21-23.24h21.57c1.37,1.79,1,3.34,1,4.8.1,26.16.25,52.32.19,78.49,0,11.06-2.79,21.44-9.55,30.44-6.37,8.48-15,13-25.54,13.71-1.82.12-3.66.12-5.49.12H468.38c0-8.88,0-17.31,0-25.74q-.24-73.5-.48-147c-.06-18.67,10.71-29.64,29.25-29.77,8.12-.06,16.23,0,24.78,0Z" transform="translate(-302.85 -152.73)"/><path class="cls-1" d="M794.16,395.61c8.74-7.24,16.21-13.59,22.26-21.4,5.9-7.62,9.08-15.85,9-25.78-.34-26.66-.07-53.33,0-80,0-6.67.5-13.32,2.74-19.69a31,31,0,0,1,29.73-21.06h23.86v75.15H925c1.28-1.54.69-3.45.7-5.21.09-13.33.07-26.66.15-40,.13-19.6,10.44-29.91,30-29.93q52-.06,104,0H1064c1.41,2,.88,3.91.88,5.68,0,28.66,0,57.33,0,86a59.24,59.24,0,0,1-1.33,13.89c-3,12.54-13.79,20.58-29,21.72-2.82.21-5.66.22-8.49.22-47,0-94,.06-141-.09-4.14,0-5.61,1.07-6.41,5.29a69.07,69.07,0,0,1-15.58,32.5c-1.21,1.41-2.28,2.75-4.44,2.75C837.72,395.59,816.76,395.61,794.16,395.61Zm186-92.75h30.24V279.48H980.2Z" transform="translate(-302.85 -152.73)"/><path class="cls-1" d="M302.9,303.2h84.47c1.31-2.23.79-4.27.79-6.21q.06-56.73,0-113.46a40.91,40.91,0,0,1,2.5-14.17c3.56-9.76,10.72-15.42,20.82-16.18,9.92-.75,19.94-.17,29.93-.17,1.33,1.65.75,3.56.75,5.32q.06,73.47,0,146.95c0,13.47-2.4,26.2-10.89,37.11-6.28,8.08-14.62,12.69-24.9,12.75-27.66.15-55.32.19-83-.08-13.05-.12-20.31-7.73-20.52-20.74C302.77,324.18,302.9,314,302.9,303.2Z" transform="translate(-302.85 -152.73)"/><path class="cls-1" d="M464.8,428.65,399.56,554,334.11,428.42V546.73H304.36V363.89c9,0,17.83,0,26.62,0,2.77,0,3,2.38,3.81,4Q365.47,426.72,396,485.63c.91,1.75,1.87,3.47,3.15,5.84,1.13-2,2-3.49,2.79-5q30.63-59.15,61.17-118.35c1.7-3.29,3.56-4.47,7.24-4.32,7.81.31,15.64.09,23.87.09V546.65H464.8Z" transform="translate(-302.85 -152.73)"/><path class="cls-1" d="M976.91,424.4V410.86h28.86V546.59H975.33V533.14c-16.52,14-34.9,17.85-54.73,14.47S885,533.92,874,516.92c-17.54-27.13-13.33-67.15,8.52-89.81C902.31,406.62,947.32,398.55,976.91,424.4Zm-.71,53.34a40.91,40.91,0,0,0-6.42-23.47c-9.55-14.95-27.45-21.47-45.5-16.63-17,4.54-28,19-29.06,38.07-1.15,20.55,9.48,37.67,26.85,43.25C950.4,528.06,976,509.16,976.2,477.74Z" transform="translate(-302.85 -152.73)"/><path class="cls-1" d="M660.75,490.34H553.89c2.45,13.81,9.93,23.5,22.44,28.09,24,8.82,43.19.28,58.87-19l22,18.12c-7.8,10.19-16.76,18.77-28.13,24.38-20.1,9.93-41,11.25-62,3.58-30.34-11.07-48-42.48-43.73-75.69,2.49-19.5,9.8-36.27,25.44-48.65,40.45-32,100.51-8.7,110.17,42.73A102,102,0,0,1,660.75,490.34ZM627,463.88c-3.32-17.88-19.57-29.41-39-28.16-16.82,1.09-32.34,14.24-33.16,28.16Z" transform="translate(-302.85 -152.73)"/><path class="cls-1" d="M757.29,501.65H786.6c.48,2.94.82,5.88,1.47,8.74,1.45,6.44,5.28,10.51,11.94,11.87,6,1.24,12,1.16,17.57-1.53a14.2,14.2,0,0,0,8.48-12.59c.39-5.62-3.32-8.4-7.41-10.85-5-3-10.62-4.7-16.22-6.31A114.63,114.63,0,0,1,781,482.86c-15.39-8-23.49-20.31-22-38,1.36-16.72,11-27.65,25.9-33.69,14.66-5.93,29.73-5.45,44.24.92,16.53,7.25,25.76,25.4,22.44,43.25H823.7c-1-3.59-.35-7.16-1.54-10.5-2.26-6.33-6.6-9.71-13.94-10.07-7.61-.37-14.91.51-19,8.09-3.13,5.8-.8,12.08,5.2,15.11,5.37,2.72,11.15,4.32,16.92,5.91,6.1,1.69,12.08,3.66,18,5.84C843.9,475.07,853,485,855,500.56c2.23,17.14-3.41,31.23-17.81,41.2-16.55,11.46-45.56,11.42-62.13,0C761.19,532.19,757.2,518.09,757.29,501.65Z" transform="translate(-302.85 -152.73)"/><path class="cls-1" d="M711.36,546.76H681.44V411h28.34c1.46,2-.19,4.78,1.4,7.64,11.41-9.75,24.57-12.2,39.24-9.11v31.19c-3.55-.61-6.93-1.37-10.35-1.75-16.84-1.85-26.33,5.8-28,22.71-.5,5-.63,10-.65,15-.07,21.48,0,43,0,64.45Z" transform="translate(-302.85 -152.73)"/><path class="cls-1" d="M1026.77,371.9h28.81v178h-28.81Z" transform="translate(-302.85 -152.73)"/><path class="cls-1" d="M1028.21,613.06V570.12c3.48-1.54,5.77-.57,7.93,2.57,6.57,9.56,13.41,18.94,21.11,28.21V570.34a6.85,6.85,0,0,1,5.7-.5V613.1c-3.2,1.48-5-.05-6.69-2.49-7.07-10.09-14.26-20.1-22-31v33.06C1032.06,614,1030.34,613.8,1028.21,613.06Z" transform="translate(-302.85 -152.73)"/><path class="cls-1" d="M400.43,614.39c-13.44-.1-23.1-9.79-23-23s9.91-22.8,23.34-22.68,23.12,9.84,23,23S413.79,614.49,400.43,614.39Zm.16-40.45c-9.95,0-17,7.19-17,17.46s6.87,17.58,16.77,17.66c10.09.08,17.54-7.47,17.45-17.66C417.71,581.44,410.33,574,400.59,573.94Z" transform="translate(-302.85 -152.73)"/><path class="cls-1" d="M955.9,614.38c-13.51.1-23.22-9.34-23.32-22.66s9.49-23,22.93-23.07,23.28,9.49,23.38,22.68S969.3,614.28,955.9,614.38Zm-.44-5.32c10,.07,17.23-7.08,17.4-17.28.16-10-7.18-17.73-16.91-17.83-10.1-.11-17.12,7-17.2,17.32S945.46,609,955.46,609.06Z" transform="translate(-302.85 -152.73)"/><path class="cls-1" d="M563.64,581.23v31.28c-1.72,1.73-3.51.81-5.49.94V570c3.59-1.39,5.69,0,7.66,2.8,6.69,9.68,13.61,19.21,21.14,29.77V570.25c2.07-1.12,3.68-.87,5.64-.43V613c-3.2,1.48-5.05,0-6.9-2.65-6.9-9.91-14-19.68-21-29.51Z" transform="translate(-302.85 -152.73)"/><path class="cls-1" d="M644.21,613.11V569.7c7.31-.51,14.43-.67,21.32,1.54,8.92,2.85,13.51,10,13.47,20.42s-4.78,17.3-13.77,20.25C660.23,613.55,650.81,614.12,644.21,613.11ZM650.29,575v32.89c15,1.2,22.52-4.12,22.72-15.81C673.22,579.62,666.22,574.24,650.29,575Z" transform="translate(-302.85 -152.73)"/><path class="cls-1" d="M722.2,613.55c4-9.76,7.85-18.92,11.64-28.08,1.91-4.6,3.7-9.25,5.73-13.8,1.37-3.06,5.16-3.47,6.42-.6,6.13,13.93,12,28,18,42-5.12,1.94-7.65-.09-8.63-4.55-.91-4.08-3.18-5.85-7.42-5.16a18.87,18.87,0,0,1-5,0c-6.72-.73-12.41-.23-13.91,8.26C728.44,615.2,725.16,613.22,722.2,613.55Zm12.48-15.76H751.1c-2.68-6.75-5.21-13.09-8.17-20.53Z" transform="translate(-302.85 -152.73)"/><path class="cls-1" d="M501.24,569.81c2.18-.41,3.79-.69,5.65.26,0,9.86.43,19.84-.13,29.75-.52,9.18-8,14.89-17.61,14.55-9.43-.34-15.92-6.28-16.2-15.47-.3-9.62-.07-19.25-.07-28.77,1.85-1,3.46-.72,5.85-.26,0,5.78,0,11.69,0,17.6,0,3.66-.08,7.33.15,11,.44,7,4.48,10.67,11.26,10.58,6.38-.08,10.55-3.9,10.79-10.59.29-8.31.1-16.64.14-25C501.07,572.34,501.17,571.21,501.24,569.81Z" transform="translate(-302.85 -152.73)"/><path class="cls-1" d="M313.15,588.33h16.21c1,1.9.67,3.35.42,5.25H313v18.93c-2,1.79-3.83.87-5.87,1.14V569.8h22.3c1.07,1.37.63,3,.2,5H313.15Z" transform="translate(-302.85 -152.73)"/><path class="cls-1" d="M820.07,613.41h-5.73V575H803.58c-1.26-2-.7-3.44-.73-5.25h27.91c.9,1.54.8,3.09,0,5H820.07Z" transform="translate(-302.85 -152.73)"/><path class="cls-1" d="M878.31,569.88a6.83,6.83,0,0,1,5.25.13v43c-1.68,1-3.3.69-5.25.35Z" transform="translate(-302.85 -152.73)"/></svg>