<svg id="Layer_1" data-name="Layer 1" xmlns="http://www.w3.org/2000/svg" viewBox="0 0 751.22 190.2"><defs><style>.cls-1{fill:#039192;}</style></defs><title>logo_English</title><path class="cls-1" d="M464.8,428.65,399.56,554,334.11,428.42V546.73H304.36V363.89c9,0,17.83,0,26.62,0,2.77,0,3,2.38,3.81,4Q365.47,426.72,396,485.63c.91,1.75,1.87,3.47,3.15,5.84,1.13-2,2-3.49,2.79-5q30.63-59.15,61.17-118.35c1.7-3.29,3.56-4.47,7.24-4.32,7.81.31,15.64.09,23.87.09V546.65H464.8Z" transform="translate(-304.36 -363.77)"/><path class="cls-1" d="M976.91,424.4V410.86h28.86V546.59H975.33V533.14c-16.52,14-34.9,17.85-54.73,14.47S885,533.92,874,516.92c-17.54-27.13-13.33-67.15,8.52-89.81C902.31,406.62,947.32,398.55,976.91,424.4Zm-.71,53.34a40.91,40.91,0,0,0-6.42-23.47c-9.55-14.95-27.45-21.47-45.5-16.63-17,4.54-28,19-29.06,38.07-1.15,20.55,9.48,37.67,26.85,43.25C950.4,528.06,976,509.16,976.2,477.74Z" transform="translate(-304.36 -363.77)"/><path class="cls-1" d="M660.75,490.34H553.89c2.45,13.81,9.93,23.5,22.44,28.09,24,8.82,43.19.28,58.87-19l22,18.12c-7.8,10.19-16.76,18.77-28.13,24.38-20.1,9.93-41,11.25-62,3.58-30.34-11.07-48-42.48-43.73-75.69,2.49-19.5,9.8-36.27,25.44-48.65,40.45-32,100.51-8.7,110.17,42.73A102,102,0,0,1,660.75,490.34ZM627,463.88c-3.32-17.88-19.57-29.41-39-28.16-16.82,1.09-32.34,14.24-33.16,28.16Z" transform="translate(-304.36 -363.77)"/><path class="cls-1" d="M757.29,501.65H786.6c.48,2.94.82,5.88,1.47,8.74,1.45,6.44,5.28,10.51,11.94,11.87,6,1.24,12,1.16,17.57-1.53a14.2,14.2,0,0,0,8.48-12.59c.39-5.62-3.32-8.4-7.41-10.85-5-3-10.62-4.7-16.22-6.31A114.63,114.63,0,0,1,781,482.86c-15.39-8-23.49-20.31-22-38,1.36-16.72,11-27.65,25.9-33.69,14.66-5.93,29.73-5.45,44.24.92,16.53,7.25,25.76,25.4,22.44,43.25H823.7c-1-3.59-.35-7.16-1.54-10.5-2.26-6.33-6.6-9.71-13.94-10.07-7.61-.37-14.91.51-19,8.09-3.13,5.8-.8,12.08,5.2,15.11,5.37,2.72,11.15,4.32,16.92,5.91,6.1,1.69,12.08,3.66,18,5.84C843.9,475.07,853,485,855,500.56c2.23,17.14-3.41,31.23-17.81,41.2-16.55,11.46-45.56,11.42-62.13,0C761.19,532.19,757.2,518.09,757.29,501.65Z" transform="translate(-304.36 -363.77)"/><path class="cls-1" d="M711.36,546.76H681.44V411h28.34c1.46,2-.19,4.78,1.4,7.64,11.41-9.75,24.57-12.2,39.24-9.11v31.19c-3.55-.61-6.93-1.37-10.35-1.75-16.84-1.85-26.33,5.8-28,22.71-.5,5-.63,10-.65,15-.07,21.48,0,43,0,64.45Z" transform="translate(-304.36 -363.77)"/><path class="cls-1" d="M1026.77,371.9h28.81v178h-28.81Z" transform="translate(-304.36 -363.77)"/></svg>