<svg id="Layer_1" data-name="Layer 1" xmlns="http://www.w3.org/2000/svg" viewBox="0 0 762.16 242.91"><defs><style>.cls-1{fill:#ecb720;}</style></defs><title>logo_Arabic</title><path class="cls-1" d="M521.93,303.05h48.56c1.46-1.94.82-4,.87-5.93.35-14.15-.87-28.34.66-42.45,1.86-17.06,13.12-26.95,30.08-27h23.41v75.18h27.8c0-5.72-.11-11.33,0-16.93.25-10.48-.91-21,.69-31.44,2.13-13.79,10.35-24.33,21.37-26.12,10.5-1.7,21.18-.59,32.29-.54V302.9h27.69c0-13.06,0-25.84,0-38.63a49.57,49.57,0,0,1,1.53-13.34c4.45-16.37,13.34-23.23,30.21-23.24h21.57c1.37,1.79,1,3.34,1,4.8.1,26.16.25,52.32.19,78.49,0,11.06-2.79,21.44-9.55,30.44-6.37,8.48-15,13-25.54,13.71-1.82.12-3.66.12-5.49.12H468.38c0-8.88,0-17.31,0-25.74q-.24-73.5-.48-147c-.06-18.67,10.71-29.64,29.25-29.77,8.12-.06,16.23,0,24.78,0Z" transform="translate(-302.85 -152.73)"/><path class="cls-1" d="M794.16,395.61c8.74-7.24,16.21-13.59,22.26-21.4,5.9-7.62,9.08-15.85,9-25.78-.34-26.66-.07-53.33,0-80,0-6.67.5-13.32,2.74-19.69a31,31,0,0,1,29.73-21.06h23.86v75.15H925c1.28-1.54.69-3.45.7-5.21.09-13.33.07-26.66.15-40,.13-19.6,10.44-29.91,30-29.93q52-.06,104,0H1064c1.41,2,.88,3.91.88,5.68,0,28.66,0,57.33,0,86a59.24,59.24,0,0,1-1.33,13.89c-3,12.54-13.79,20.58-29,21.72-2.82.21-5.66.22-8.49.22-47,0-94,.06-141-.09-4.14,0-5.61,1.07-6.41,5.29a69.07,69.07,0,0,1-15.58,32.5c-1.21,1.41-2.28,2.75-4.44,2.75C837.72,395.59,816.76,395.61,794.16,395.61Zm186-92.75h30.24V279.48H980.2Z" transform="translate(-302.85 -152.73)"/><path class="cls-1" d="M302.9,303.2h84.47c1.31-2.23.79-4.27.79-6.21q.06-56.73,0-113.46a40.91,40.91,0,0,1,2.5-14.17c3.56-9.76,10.72-15.42,20.82-16.18,9.92-.75,19.94-.17,29.93-.17,1.33,1.65.75,3.56.75,5.32q.06,73.47,0,146.95c0,13.47-2.4,26.2-10.89,37.11-6.28,8.08-14.62,12.69-24.9,12.75-27.66.15-55.32.19-83-.08-13.05-.12-20.31-7.73-20.52-20.74C302.77,324.18,302.9,314,302.9,303.2Z" transform="translate(-302.85 -152.73)"/></svg>